# xmcd
#
# Track frame offsets:
#  150
#  35366
#  64765
#  103239
#  132188
#  166312
#  200136
#  227360
#  256234
#  286383
#
# Disc length: 4092 seconds
#
# Revision: 0
# Processed by: cddbd v1.5.1PL2 Copyright (c) Steve Scherf et al.
# Submitted via: Collectorz.com_Music_Collector 6.11
#
DISCID=8b0ffa0a
DTITLE=Clapton, Eric - Les Trois Mousquetaires (2CDs) [CD1)
DYEAR=1988
DGENRE=Blues Rock
TTITLE0=Eric Clapton - Crossroads
TTITLE1=Eric Clapton - White Room
TTITLE2=Eric Clapton - I Shot The Sheriff
TTITLE3=Eric Clapton - Lay Down Sally
TTITLE4=Eric Clapton - Wondrful Tonight
TTITLE5=Eric Clapton - Tearing Us Apart
TTITLE6=Eric Clapton - After Midnight
TTITLE7=Eric Clapton - Can't Find My Way Home
TTITLE8=Mark Knopfler - Money For Nothing
TTITLE9=Elton John - Candle In The Wind
EXTD=
EXTT0=
EXTT1=
EXTT2=
EXTT3=
EXTT4=
EXTT5=
EXTT6=
EXTT7=
EXTT8=
EXTT9=
PLAYORDER=
